<?xml version="1.0" encoding="UTF-8" standalone="no"?>
<!-- Created with Inkscape (http://www.inkscape.org/) -->

<svg
   width="270.93332mm"
   height="270.93332mm"
   viewBox="0 0 270.93332 270.93332"
   version="1.1"
   id="svg1"
   xml:space="preserve"
   inkscape:version="1.4.2 (ebf0e940d0, 2025-05-08)"
   sodipodi:docname="logo_dark.svg"
   xmlns:inkscape="http://www.inkscape.org/namespaces/inkscape"
   xmlns:sodipodi="http://sodipodi.sourceforge.net/DTD/sodipodi-0.dtd"
   xmlns="http://www.w3.org/2000/svg"
   xmlns:svg="http://www.w3.org/2000/svg"><sodipodi:namedview
     id="namedview1"
     pagecolor="#505050"
     bordercolor="#ffffff"
     borderopacity="1"
     inkscape:showpageshadow="0"
     inkscape:pageopacity="0"
     inkscape:pagecheckerboard="1"
     inkscape:deskcolor="#505050"
     inkscape:document-units="mm"
     inkscape:zoom="0.7483165"
     inkscape:cx="501.12486"
     inkscape:cy="503.79753"
     inkscape:window-width="1920"
     inkscape:window-height="1043"
     inkscape:window-x="0"
     inkscape:window-y="0"
     inkscape:window-maximized="1"
     inkscape:current-layer="layer2" /><defs
     id="defs1"><rect
       x="151.00562"
       y="439.65354"
       width="256.57593"
       height="104.23397"
       id="rect5" /></defs><g
     inkscape:groupmode="layer"
     id="layer2"
     inkscape:label="illustration"><g
       id="g1"
       transform="matrix(0.31548343,0,0,0.31548343,-5.765156,89.038618)"
       inkscape:label="G"
       style="fill:#bfd2f0;fill-opacity:1;stroke:#bfd2f0;stroke-opacity:1"><g
         id="layer2-9"
         inkscape:label="illustration"
         style="display:inline;fill:#bfd2f0;fill-opacity:1;stroke:#bfd2f0;stroke-opacity:1"><path
           style="font-variation-settings:normal;opacity:1;vector-effect:none;fill:#bfd2f0;fill-opacity:1;stroke:#bfd2f0;stroke-width:0.0305109;stroke-linecap:butt;stroke-linejoin:miter;stroke-miterlimit:4;stroke-dasharray:none;stroke-dashoffset:0;stroke-opacity:1;-inkscape-stroke:none;stop-color:#000000;stop-opacity:1"
           d="m 47.458646,218.97376 c 31.361747,3.73131 51.016387,-7.44015 61.577714,-15.19819 11.94567,8.85978 46.40061,24.74823 89.82125,1.52073 l -0.0505,-38.79934 -19.27362,-0.10104 c 5.74145,-11.6684 11.1821,-24.94113 11.90719,-43.69329 h 59.53602 l 0.20168,107.56848 c -81.66845,64.7633 -180.179834,26.45572 -203.719865,-11.2974 z"
           id="path9"
           sodipodi:nodetypes="ccccccccc"
           inkscape:label="bottom" /><path
           style="font-variation-settings:normal;display:inline;opacity:1;vector-effect:none;fill:#bfd2f0;fill-opacity:1;stroke:#bfd2f0;stroke-width:0.0305109;stroke-linecap:butt;stroke-linejoin:miter;stroke-miterlimit:4;stroke-dasharray:none;stroke-dashoffset:0;stroke-opacity:1;-inkscape-stroke:none;stop-color:#000000;stop-opacity:1"
           d="m 38.867996,207.09406 c 35.081512,5.65533 60.111657,-12.55742 76.538284,-30.10261 l 4.80172,6.10096 c -14.08644,12.13426 -41.83286,37.94636 -81.340004,24.00165 z"
           id="path8"
           sodipodi:nodetypes="cccc"
           inkscape:label="arrow-shadow" /><path
           style="font-variation-settings:normal;opacity:1;fill:#bfd2f0;fill-opacity:1;stroke:#bfd2f0;stroke-width:0.0305109;stroke-linecap:butt;stroke-linejoin:miter;stroke-miterlimit:4;stroke-dasharray:none;stroke-dashoffset:0;stroke-opacity:1;stop-color:#000000;stop-opacity:1"
           d="m 112.36181,132.57037 c -20.26708,38.35508 -39.03897,56.81211 -56.973015,64.11993 17.584936,-3.17963 35.774145,-13.3686 55.152585,-37.35272 11.06385,15.69555 21.73556,31.15585 31.01489,45.78068 22.92605,-22.20184 41.67736,-48.3697 43.21859,-90.88714 l 13.68703,-0.1349 -24.07028,-26.564947 -24.00282,26.430087 15.64227,0.40454 c -0.81012,37.60444 -11.9954,48.8713 -21.3733,63.31086 -2.31672,-3.18784 -4.70072,-6.69575 -5.66359,-8.36053 10.06481,-12.95396 17.70357,-28.83226 19.28319,-48.14051 l -6.70865,0.0335 c -1.25162,13.4326 -4.24748,27.57839 -16.34625,42.48156 -12.78735,-16.45252 -15.50152,-21.05413 -22.86065,-31.12051 z"
           id="path7"
           sodipodi:nodetypes="ccccccccccccccc"
           inkscape:label="arrow" /><path
           style="font-variation-settings:normal;opacity:1;vector-effect:none;fill:#bfd2f0;fill-opacity:1;stroke:#bfd2f0;stroke-width:1.52554;stroke-linecap:butt;stroke-linejoin:miter;stroke-miterlimit:4;stroke-dasharray:none;stroke-dashoffset:0;stroke-opacity:1;-inkscape-stroke:none;stop-color:#000000;stop-opacity:1"
           d="M 22.823173,101.01611 C 26.565365,80.957429 48.196889,40.109279 84.043895,22.534908 103.97574,10.810342 134.88145,3.6129837 169.64434,7.0283556 206.664,10.32808 229.12484,24.859101 246.49763,38.780405 l -31.37062,40.715092 c -9.94739,-10.704085 -27.6699,-20.74945 -44.14774,-23.647183 -26.47335,-3.287192 -53.21138,-2.031092 -77.71146,23.837878 -8.220901,9.429543 -12.878414,20.551658 -16.0337,32.387368 -1.531136,8.68534 -5.283547,23.43365 2.932875,53.90526 -3.716284,4.52537 -6.633646,6.89422 -9.810138,9.84385 -5.427715,4.9798 -11.688334,9.07769 -16.619911,11.69802 -3.22677,1.76436 -4.813404,2.61251 -9.371914,4.65219 -4.030063,1.48958 -7.585383,2.96727 -11.495722,2.89924 C 19.984093,171.6124 14.882886,141.71073 22.823173,101.01611 Z"
           id="path6"
           sodipodi:nodetypes="ccsscccccccccc"
           inkscape:label="hight-arc" /></g></g><path
       id="path14"
       style="font-variation-settings:normal;opacity:1;fill:#bfd2f0;fill-opacity:1;stroke:#bfd2f0;stroke-width:0.564756;stroke-linecap:butt;stroke-linejoin:miter;stroke-miterlimit:4;stroke-dasharray:none;stroke-dashoffset:0;stroke-opacity:1;stop-color:#000000;stop-opacity:1"
       inkscape:label="R"
       d="m 85.526446,115.33452 -0.07012,36.57066 7.624181,0.21123 -0.07012,-12.42565 6.917942,0.21258 7.977901,12.21319 8.683,0.0701 -8.54176,-13.13074 c 12.69843,-6.39924 8.61174,-22.77585 -3.88271,-23.72127 z m 7.468949,7.07086 h 10.882335 c 6.04871,1.8637 5.74924,9.40919 -0.0747,11.10648 l -10.833337,0.0257 z" /><path
       id="path16"
       style="font-variation-settings:normal;opacity:1;vector-effect:none;fill:#bfd2f0;fill-opacity:1;stroke:#bfd2f0;stroke-width:0.0225903;stroke-linecap:butt;stroke-linejoin:miter;stroke-miterlimit:4;stroke-dasharray:none;stroke-dashoffset:0;stroke-opacity:1;-inkscape-stroke:none;stop-color:#000000;stop-opacity:1"
       d="m 139.81689,115.33452 -15.8146,36.8532 h 7.90787 l 3.31774,-8.40167 h 16.23714 l 3.60021,8.47168 8.04913,-0.0701 -16.09708,-36.78196 z m 3.39825,9.31689 5.59176,12.68016 h -10.68393 z"
       inkscape:label="A" /><path
       style="font-variation-settings:normal;opacity:1;vector-effect:none;fill:#bfd2f0;fill-opacity:1;stroke:#bfd2f0;stroke-width:0.0225903;stroke-linecap:butt;stroke-linejoin:miter;stroke-miterlimit:4;stroke-dasharray:none;stroke-dashoffset:0;stroke-opacity:1;-inkscape-stroke:none;stop-color:#000000;stop-opacity:1"
       d="m 172.9625,152.08128 7.13041,0.0354 -0.10588,-24.03865 18.99085,24.03872 6.24798,-0.0354 -0.0354,-36.42862 h -7.16578 l -0.0704,23.61512 -18.77919,-23.54454 -6.17733,-0.0355 z"
       id="path17"
       sodipodi:nodetypes="ccccccccccc"
       inkscape:label="N" /><path
       style="font-variation-settings:normal;opacity:1;vector-effect:none;fill:#bfd2f0;fill-opacity:1;stroke:#bfd2f0;stroke-width:0.0225903;stroke-linecap:butt;stroke-linejoin:miter;stroke-miterlimit:4;stroke-dasharray:none;stroke-dashoffset:0;stroke-opacity:1;-inkscape-stroke:none;stop-color:#000000;stop-opacity:1"
       d="m 219.1161,151.97538 6.91865,0.0354 v -36.34507 h -6.99027 z"
       id="path18"
       inkscape:label="I" /><path
       style="font-variation-settings:normal;opacity:1;vector-effect:none;fill:#bfd2f0;fill-opacity:1;stroke:#bfd2f0;stroke-width:0.0225903;stroke-linecap:butt;stroke-linejoin:miter;stroke-miterlimit:4;stroke-dasharray:none;stroke-dashoffset:0;stroke-opacity:1;-inkscape-stroke:none;stop-color:#000000;stop-opacity:1"
       d="m 245.80188,115.61553 -8.46154,0.12497 11.70635,17.54706 -12.82956,18.77009 8.38665,0.0249 8.78602,-13.17891 9.06057,13.15406 h 8.46151 l -12.90445,-18.82004 12.03084,-17.54705 -8.31177,-0.025 -7.93737,12.03094 z"
       id="path19"
       sodipodi:nodetypes="ccccccccccccc"
       inkscape:label="X" /></g></svg>
